<svg id="visual" viewBox="0 0 900 600" width="900" height="600" xmlns="http://www.w3.org/2000/svg" xmlns:xlink="http://www.w3.org/1999/xlink" version="1.1"><path d="M0 55L82 61L164 49L245 67L327 43L409 37L491 25L573 79L655 25L736 55L818 25L900 61L900 0L818 0L736 0L655 0L573 0L491 0L409 0L327 0L245 0L164 0L82 0L0 0Z" fill="#4facf7"></path><path d="M0 151L82 139L164 193L245 211L327 193L409 187L491 103L573 187L655 109L736 235L818 151L900 193L900 59L818 23L736 53L655 23L573 77L491 23L409 35L327 41L245 65L164 47L82 59L0 53Z" fill="#3da4fa"></path><path d="M0 169L82 169L164 223L245 235L327 223L409 235L491 151L573 205L655 133L736 283L818 187L900 229L900 191L818 149L736 233L655 107L573 185L491 101L409 185L327 191L245 209L164 191L82 137L0 149Z" fill="#2b9dfc"></path><path d="M0 205L82 247L164 313L245 283L327 289L409 319L491 229L573 283L655 223L736 349L818 247L900 319L900 227L818 185L736 281L655 131L573 203L491 149L409 233L327 221L245 233L164 221L82 167L0 167Z" fill="#1795fe"></path><path d="M0 439L82 373L164 427L245 361L327 379L409 439L491 367L573 439L655 373L736 415L818 439L900 439L900 317L818 245L736 347L655 221L573 281L491 227L409 317L327 287L245 281L164 311L82 245L0 203Z" fill="#008cff"></path><path d="M0 457L82 421L164 481L245 403L327 415L409 457L491 415L573 463L655 403L736 463L818 493L900 475L900 437L818 437L736 413L655 371L573 437L491 365L409 437L327 377L245 359L164 425L82 371L0 437Z" fill="#0083ff"></path><path d="M0 547L82 529L164 529L245 505L327 535L409 511L491 517L573 505L655 523L736 517L818 541L900 553L900 473L818 491L736 461L655 401L573 461L491 413L409 455L327 413L245 401L164 479L82 419L0 455Z" fill="#007aff"></path><path d="M0 565L82 577L164 547L245 541L327 565L409 565L491 547L573 547L655 547L736 553L818 577L900 571L900 551L818 539L736 515L655 521L573 503L491 515L409 509L327 533L245 503L164 527L82 527L0 545Z" fill="#0070ff"></path><path d="M0 601L82 601L164 601L245 601L327 601L409 601L491 601L573 601L655 601L736 601L818 601L900 601L900 569L818 575L736 551L655 545L573 545L491 545L409 563L327 563L245 539L164 545L82 575L0 563Z" fill="#0066ff"></path></svg>